<svg xmlns="http://www.w3.org/2000/svg" width="158" height="34" viewBox="0 0 158 34" fill="none"><g clip-path="url(#clip0_2001_814)"><path fill-rule="evenodd" clip-rule="evenodd" d="M39.3334 13.1952C39.1829 13.1093 39.0285 13.0308 38.8701 12.96C38.7122 12.8888 38.5507 12.8258 38.3862 12.7705C38.2217 12.7153 38.0546 12.6678 37.8853 12.6285C37.716 12.5897 37.5454 12.5586 37.373 12.5361C37.2006 12.5133 37.0278 12.499 36.8541 12.4934C36.6804 12.4874 36.5067 12.49 36.3335 12.5012C36.1598 12.512 35.9874 12.5314 35.8159 12.559C35.644 12.5866 35.4742 12.6225 35.3067 12.6665C35.1387 12.7109 34.9733 12.7627 34.8101 12.8232C34.6474 12.8832 34.4881 12.9509 34.3319 13.0265C34.1762 13.102 34.0239 13.1849 33.8765 13.2755C33.7286 13.3657 33.5855 13.4628 33.4477 13.5669C33.3095 13.6713 33.1769 13.7818 33.0496 13.8988C32.9227 14.0158 32.8015 14.1383 32.6869 14.2674C32.5719 14.396 32.4638 14.5298 32.3623 14.6693C32.2604 14.8082 32.1663 14.952 32.0788 15.1005L27.7016 22.5931C27.6145 22.7416 27.5349 22.894 27.4632 23.0502C27.391 23.2065 27.3271 23.3657 27.2711 23.528C27.2151 23.6907 27.167 23.8552 27.1276 24.0222C27.0878 24.1893 27.0563 24.358 27.0335 24.5281C27.0108 24.6982 26.9964 24.8687 26.9907 25.0405C26.9845 25.2118 26.9872 25.3832 26.9985 25.5545C27.0099 25.7254 27.0296 25.8959 27.0576 26.0651C27.086 26.2343 27.1224 26.4018 27.1674 26.5676C27.212 26.7333 27.265 26.8965 27.3262 27.057C27.3875 27.218 27.4562 27.3751 27.5332 27.5292C27.6097 27.6829 27.6942 27.8327 27.7856 27.9786C27.8775 28.1244 27.9764 28.2652 28.0822 28.4016C28.1877 28.5375 28.3001 28.6683 28.4187 28.7939C28.5377 28.9191 28.6624 29.0382 28.7932 29.1517C28.9235 29.2648 29.0596 29.3714 29.2009 29.4716C29.3422 29.5713 29.4879 29.6645 29.6389 29.7504C29.7894 29.8363 29.9438 29.9148 30.1026 29.9856C30.261 30.0569 30.4224 30.1199 30.5874 30.1751C30.7523 30.2308 30.9194 30.2779 31.0887 30.3171C31.2585 30.356 31.4295 30.3871 31.6019 30.4095C31.7747 30.4319 31.948 30.4462 32.1221 30.4518C32.2958 30.4574 32.4699 30.4548 32.6436 30.4436C32.8173 30.4324 32.9901 30.413 33.1616 30.3849C33.3335 30.3573 33.5033 30.321 33.6717 30.2766C33.8397 30.2321 34.0055 30.1799 34.1683 30.1194C34.3315 30.0586 34.4907 29.9904 34.6469 29.9148C34.8031 29.8389 34.9549 29.7556 35.1028 29.6645C35.2507 29.5739 35.3937 29.4763 35.532 29.3719C35.6698 29.2674 35.8028 29.1565 35.9297 29.0386C36.0565 28.9212 36.1777 28.7982 36.2924 28.6692C36.407 28.5397 36.515 28.4054 36.6165 28.266C36.718 28.1262 36.8121 27.982 36.8992 27.8331L41.2794 20.3521C41.366 20.2036 41.4457 20.0508 41.517 19.8946C41.5887 19.7383 41.6526 19.579 41.7082 19.4163C41.7642 19.254 41.8114 19.0891 41.8508 18.9221C41.8902 18.7546 41.9212 18.5863 41.944 18.4162C41.9667 18.2457 41.9807 18.0752 41.9864 17.9035C41.9917 17.7321 41.9891 17.5607 41.9772 17.3894C41.9659 17.2185 41.9462 17.048 41.9177 16.8788C41.8893 16.7096 41.8526 16.5421 41.8075 16.3763C41.7624 16.2106 41.7091 16.0474 41.6478 15.8869C41.5866 15.7263 41.5174 15.5692 41.4404 15.4151C41.3634 15.2614 41.2794 15.1117 41.1875 14.9658C41.0957 14.8203 40.9968 14.6792 40.8909 14.5432C40.785 14.4073 40.6726 14.2765 40.5536 14.1513C40.4346 14.0257 40.3099 13.9066 40.1791 13.7935C40.0487 13.6804 39.9127 13.5738 39.7714 13.4741C39.6296 13.3739 39.4839 13.2811 39.3334 13.1952Z" fill="#110B11"></path><path fill-rule="evenodd" clip-rule="evenodd" d="M22.3151 9.25375C22.4656 9.16785 22.62 9.08973 22.7784 9.01894C22.9368 8.94815 23.0987 8.88514 23.2632 8.82989C23.4281 8.77464 23.5948 8.72759 23.7641 8.68875C23.9339 8.6499 24.1045 8.61925 24.2769 8.59681C24.4492 8.57436 24.6225 8.56012 24.7966 8.55451C24.9703 8.5489 25.144 8.55192 25.3172 8.56314C25.4909 8.57436 25.6637 8.59379 25.8352 8.62184C26.0067 8.6499 26.1765 8.68572 26.3445 8.73018C26.5125 8.77464 26.6779 8.8273 26.8406 8.88773C27.0034 8.94815 27.163 9.01592 27.3188 9.09189C27.475 9.16785 27.6268 9.25116 27.7742 9.3418C27.9221 9.43244 28.0647 9.52956 28.203 9.63401C28.3408 9.73847 28.4734 9.8494 28.6002 9.9668C28.7271 10.0842 28.8483 10.2072 28.9629 10.3363C29.0775 10.4649 29.1856 10.5991 29.2867 10.7386C29.3882 10.8784 29.4822 11.0221 29.5693 11.1706L36.2665 22.5928C36.3532 22.7418 36.4324 22.8945 36.5037 23.0508C36.575 23.2075 36.6389 23.3672 36.6944 23.5299C36.75 23.6926 36.7972 23.8575 36.8366 24.0246C36.8755 24.192 36.9066 24.3608 36.9289 24.5309C36.9512 24.7013 36.9652 24.8723 36.9705 25.0436C36.9757 25.2154 36.9727 25.3868 36.9609 25.5581C36.949 25.7291 36.9289 25.8996 36.9005 26.0688C36.8716 26.2384 36.8349 26.4059 36.7894 26.5716C36.7439 26.7373 36.6905 26.9005 36.6288 27.0611C36.5675 27.2216 36.498 27.3787 36.4205 27.5324C36.3435 27.6865 36.2587 27.8363 36.1668 27.9817C36.0745 28.1272 35.9752 28.2679 35.8693 28.4043C35.763 28.5403 35.6501 28.6706 35.5311 28.7958C35.4121 28.921 35.287 29.0401 35.1557 29.1527C35.0249 29.2658 34.8884 29.372 34.7471 29.4722C34.6054 29.5719 34.4592 29.6642 34.3083 29.7501C34.1578 29.8356 34.0029 29.9141 33.8445 29.9849C33.6862 30.0557 33.5247 30.1187 33.3598 30.174C33.1953 30.2288 33.0282 30.2758 32.8589 30.3151C32.6895 30.354 32.5185 30.3846 32.3461 30.4071C32.1737 30.4295 32.0005 30.4433 31.8268 30.4489C31.6531 30.4545 31.4794 30.452 31.3057 30.4407C31.132 30.4295 30.9597 30.4101 30.7882 30.382C30.6167 30.354 30.4465 30.3177 30.2785 30.2733C30.1105 30.2292 29.9451 30.1766 29.7824 30.1161C29.6196 30.0557 29.4604 29.9875 29.3042 29.9116C29.1484 29.836 28.9966 29.7527 28.8487 29.6621C28.7013 29.5714 28.5582 29.4739 28.4204 29.3694C28.2822 29.265 28.1496 29.1545 28.0227 29.0371C27.8959 28.9197 27.7751 28.7967 27.6605 28.6676C27.5459 28.5385 27.4378 28.4043 27.3363 28.2649C27.2348 28.1255 27.1407 27.9813 27.0537 27.8328L20.3687 16.4106C20.2816 16.2621 20.2024 16.1098 20.1307 15.9535C20.0589 15.7973 19.995 15.6376 19.939 15.4753C19.883 15.3125 19.8354 15.1477 19.796 14.9806C19.7562 14.8136 19.7251 14.6448 19.7024 14.4747C19.6796 14.3042 19.6656 14.1338 19.6599 13.962C19.6542 13.7906 19.6573 13.6193 19.6687 13.4479C19.68 13.2765 19.6997 13.1065 19.7282 12.9368C19.7566 12.7676 19.7934 12.6002 19.8384 12.4344C19.8835 12.2687 19.9369 12.1055 19.9981 11.9445C20.0594 11.784 20.1285 11.6268 20.2055 11.4728C20.2825 11.3191 20.3669 11.1693 20.4588 11.0234C20.5511 10.878 20.65 10.7368 20.7559 10.6009C20.8617 10.4649 20.9742 10.3341 21.0932 10.2089C21.2122 10.0838 21.3373 9.96464 21.4681 9.85156C21.5989 9.73847 21.735 9.63186 21.8767 9.53215C22.018 9.43201 22.1642 9.33921 22.3151 9.25375Z" fill="#110B11"></path><mask id="mask0_2001_814" style="mask-type:luminance" maskUnits="userSpaceOnUse" x="0" y="2" width="22" height="30"><path d="M0 2.02246H21.84V31.4424H0V2.02246Z" fill="white"></path></mask><g mask="url(#mask0_2001_814)"><path fill-rule="evenodd" clip-rule="evenodd" d="M2.66628 2.72425C2.81721 2.63878 2.97165 2.56066 3.13003 2.48987C3.28884 2.41908 3.45028 2.3565 3.61478 2.30125C3.77971 2.24643 3.94684 2.19938 4.11615 2.16054C4.28546 2.12169 4.45653 2.09105 4.6289 2.06903C4.80128 2.04659 4.97453 2.03278 5.14821 2.02716C5.3219 2.02155 5.49559 2.02457 5.66928 2.0358C5.84296 2.04702 6.01534 2.06687 6.18684 2.09493C6.35878 2.12299 6.52853 2.15881 6.69653 2.20327C6.86409 2.24773 7.02946 2.30039 7.19221 2.36081C7.35496 2.42124 7.51465 2.48944 7.6704 2.56541C7.82659 2.64137 7.9784 2.72468 8.12584 2.81532C8.27371 2.90596 8.41634 3.00351 8.55459 3.10797C8.6924 3.21242 8.82496 3.32335 8.95184 3.44032C9.07871 3.55772 9.19946 3.68074 9.31409 3.8098C9.42915 3.93885 9.53678 4.07309 9.63828 4.21251C9.73978 4.35192 9.83384 4.49609 9.9209 4.64457L21.0282 23.622C21.1157 23.7705 21.1948 23.9229 21.267 24.0787C21.3388 24.235 21.4031 24.3942 21.4591 24.5565C21.5151 24.7188 21.5632 24.8837 21.603 25.0507C21.6424 25.2178 21.6739 25.3861 21.6967 25.5562C21.7198 25.7262 21.7343 25.8972 21.74 26.0685C21.7461 26.2399 21.7435 26.4112 21.7321 26.5826C21.7212 26.7535 21.7015 26.924 21.6735 27.0932C21.645 27.2624 21.6087 27.4299 21.5641 27.5956C21.519 27.7614 21.4661 27.9245 21.4053 28.0851C21.344 28.2461 21.2753 28.4032 21.1983 28.5573C21.1218 28.711 21.0378 28.8612 20.9459 29.0066C20.8545 29.1525 20.7556 29.2937 20.6502 29.4296C20.5443 29.566 20.4323 29.6968 20.3133 29.822C20.1947 29.9476 20.07 30.0667 19.9397 30.1798C19.8088 30.2933 19.6732 30.3999 19.5319 30.5001C19.3906 30.6002 19.2449 30.693 19.0944 30.7789C18.9435 30.8648 18.789 30.9429 18.6307 31.0137C18.4723 31.0845 18.3108 31.1475 18.1459 31.2028C17.9814 31.258 17.8143 31.3051 17.645 31.3439C17.4757 31.3827 17.3046 31.4138 17.1322 31.4358C16.9598 31.4583 16.7866 31.4725 16.6129 31.4781C16.4392 31.4837 16.2655 31.4807 16.0918 31.4695C15.9182 31.4583 15.7458 31.4389 15.5743 31.4108C15.4023 31.3832 15.2326 31.3469 15.0646 31.3025C14.8966 31.258 14.7312 31.2058 14.5685 31.1453C14.4057 31.0849 14.2465 31.0167 14.0903 30.9408C13.9345 30.8648 13.7827 30.7815 13.6348 30.6913C13.487 30.6006 13.3443 30.5031 13.2061 30.3986C13.0683 30.2942 12.9357 30.1832 12.8088 30.0658C12.682 29.9489 12.5612 29.8254 12.4466 29.6968C12.3315 29.5677 12.2235 29.4335 12.1224 29.2941C12.0209 29.1547 11.9268 29.0105 11.8398 28.862L0.717214 9.88455C0.630152 9.73564 0.550964 9.58328 0.479214 9.42703C0.407464 9.27078 0.343589 9.11107 0.287589 8.94878C0.231589 8.78606 0.183902 8.62117 0.144527 8.45413C0.105152 8.28709 0.0736516 8.11833 0.0513392 7.94826C0.0285891 7.77777 0.0141516 7.60728 0.00846413 7.43549C0.00277663 7.26413 0.00583913 7.09234 0.0172141 6.92142C0.0281516 6.75006 0.0482767 6.57956 0.0767141 6.41037C0.104714 6.24117 0.141464 6.07326 0.186527 5.90752C0.231589 5.74177 0.284527 5.57861 0.345777 5.41805C0.407027 5.25705 0.476152 5.09994 0.553152 4.94585C0.630152 4.79219 0.714152 4.64198 0.806027 4.49652C0.897902 4.35063 0.996777 4.20949 1.10265 4.07352C1.20853 3.93713 1.32096 3.80634 1.43996 3.68117C1.55853 3.55557 1.68365 3.43644 1.81403 3.32335C1.94484 3.20983 2.0809 3.10322 2.22221 3.00351C2.36396 2.90337 2.50965 2.81014 2.66059 2.72425H2.66628Z" fill="#110B11"></path></g><mask id="mask1_2001_814" style="mask-type:luminance" maskUnits="userSpaceOnUse" x="11" y="8" width="19" height="24"><path d="M11.648 8.51953H29.68V31.4425H11.648V8.51953Z" fill="white"></path></mask><g mask="url(#mask1_2001_814)"><path fill-rule="evenodd" clip-rule="evenodd" d="M27.0148 9.25375C26.8643 9.16785 26.7094 9.08973 26.551 9.01894C26.3926 8.94815 26.2312 8.88514 26.0667 8.82989C25.9018 8.77464 25.7346 8.72759 25.5653 8.68875C25.396 8.6499 25.225 8.61925 25.0526 8.59681C24.8802 8.57436 24.707 8.56012 24.5333 8.55451C24.3596 8.5489 24.1859 8.55192 24.0122 8.56314C23.8385 8.57436 23.6661 8.59379 23.4946 8.62184C23.3231 8.6499 23.153 8.68572 22.985 8.73018C22.817 8.77464 22.6516 8.8273 22.4888 8.88773C22.3261 8.94815 22.1668 9.01592 22.0106 9.09189C21.8549 9.16785 21.7031 9.25116 21.5552 9.3418C21.4078 9.43244 21.2647 9.52956 21.1269 9.63401C20.9886 9.73847 20.8561 9.8494 20.7292 9.9668C20.6023 10.0842 20.4816 10.2072 20.367 10.3363C20.2523 10.4649 20.1443 10.5991 20.0428 10.7386C19.9413 10.8784 19.8472 11.0221 19.7601 11.1706L12.4666 23.6214C12.38 23.7699 12.3003 23.9223 12.2286 24.0785C12.1568 24.2348 12.093 24.3945 12.0374 24.5568C11.9814 24.7195 11.9337 24.8839 11.8939 25.0514C11.8545 25.2184 11.8235 25.3868 11.8007 25.5568C11.778 25.7273 11.764 25.8978 11.7583 26.0696C11.7526 26.241 11.7552 26.4123 11.7666 26.5837C11.778 26.7546 11.7981 26.9251 11.8261 27.0943C11.8545 27.2635 11.8913 27.431 11.9363 27.5967C11.9814 27.7625 12.0343 27.9256 12.0956 28.0862C12.1568 28.2468 12.226 28.4043 12.303 28.558C12.3795 28.7121 12.464 28.8618 12.5558 29.0073C12.6477 29.1532 12.7466 29.2943 12.8525 29.4303C12.9583 29.5663 13.0708 29.697 13.1893 29.8222C13.3083 29.9478 13.433 30.0669 13.5638 30.18C13.6946 30.2931 13.8307 30.3997 13.972 30.4999C14.1133 30.5996 14.2595 30.6924 14.41 30.7783C14.5605 30.8646 14.7153 30.9432 14.8737 31.0144C15.0325 31.0856 15.194 31.149 15.3589 31.2047C15.5238 31.26 15.691 31.3075 15.8607 31.3467C16.03 31.386 16.2015 31.4171 16.3739 31.4395C16.5467 31.4624 16.72 31.4766 16.8941 31.4823C17.0682 31.4879 17.2423 31.4853 17.416 31.4741C17.5901 31.4633 17.763 31.4438 17.9349 31.4158C18.1064 31.3877 18.2766 31.3519 18.445 31.3075C18.6135 31.263 18.7788 31.2103 18.942 31.1499C19.1052 31.0895 19.2645 31.0213 19.4211 30.9453C19.5773 30.8689 19.7291 30.7856 19.877 30.695C20.0248 30.6043 20.1679 30.5063 20.3061 30.4019C20.4444 30.297 20.577 30.1861 20.7043 30.0682C20.8311 29.9508 20.9519 29.8274 21.067 29.6979C21.1816 29.5688 21.2896 29.4342 21.3911 29.2943C21.4922 29.1545 21.5863 29.0103 21.6733 28.8614L28.9608 16.4106C29.0478 16.2621 29.127 16.1098 29.1988 15.9535C29.2705 15.7968 29.3344 15.6376 29.3904 15.4748C29.446 15.3125 29.4936 15.1477 29.533 14.9806C29.5724 14.8136 29.6035 14.6448 29.6262 14.4747C29.649 14.3047 29.663 14.1338 29.6686 13.962C29.6743 13.7906 29.6713 13.6193 29.6599 13.4479C29.6485 13.277 29.6288 13.1065 29.6004 12.9373C29.572 12.7681 29.5352 12.6002 29.4901 12.4344C29.4451 12.2687 29.3917 12.1055 29.3305 11.945C29.2692 11.7844 29.2001 11.6273 29.1231 11.4736C29.0461 11.3195 28.9616 11.1698 28.8698 11.0239C28.7779 10.8784 28.679 10.7373 28.5731 10.6013C28.4673 10.4653 28.3548 10.3346 28.2358 10.2094C28.1168 10.0842 27.9921 9.96508 27.8613 9.85199C27.7305 9.7389 27.594 9.63229 27.4527 9.53215C27.3114 9.43244 27.1653 9.33964 27.0148 9.25375Z" fill="#110B11"></path></g></g><path d="M46.0664 29V4.9375H55.6914V9.58594H50.9609V14.2754H55.5V18.8008H50.9609V24.3105H56.0059V29H46.0664ZM58.1655 29V4.9375H64.687C66.437 4.9375 67.7084 5.36589 68.5014 6.22266C69.3035 7.07031 69.7045 8.47396 69.7045 10.4336V11.4863C69.7045 12.6165 69.4995 13.5326 69.0893 14.2344C68.6883 14.9362 68.073 15.3965 67.2436 15.6152C68.3282 15.8887 69.0528 16.5312 69.4174 17.543C69.7911 18.5456 69.978 19.7715 69.978 21.2207C69.978 22.7793 69.8321 24.1419 69.5405 25.3086C69.2488 26.4753 68.7202 27.3822 67.9545 28.0293C67.1889 28.6764 66.0997 29 64.687 29H58.1655ZM62.8686 14.002H63.853C64.2996 14.002 64.5867 13.8288 64.7143 13.4824C64.8419 13.1361 64.9057 12.7214 64.9057 12.2383V9.81836C64.9057 9.04362 64.5639 8.65625 63.8803 8.65625H62.8686V14.002ZM63.3471 24.7617C64.5958 24.7617 65.2202 24.1693 65.2202 22.9844V19.9766C65.2202 19.293 65.1153 18.7552 64.9057 18.3633C64.7052 17.9622 64.3224 17.7617 63.7573 17.7617H62.8686V24.7344C63.0691 24.7526 63.2286 24.7617 63.3471 24.7617ZM79.2464 29V4.9375H86.6292C87.8597 4.9375 88.7894 5.22005 89.4183 5.78516C90.0472 6.34115 90.4665 7.125 90.6761 8.13672C90.8948 9.13932 91.0042 10.3197 91.0042 11.6777C91.0042 12.9902 90.8356 14.0384 90.4984 14.8223C90.1702 15.6061 89.5459 16.1484 88.6253 16.4492C89.3818 16.6042 89.9105 16.9824 90.2113 17.584C90.5211 18.1764 90.6761 18.9466 90.6761 19.8945V29H85.932V19.5801C85.932 18.8783 85.7861 18.4453 85.4945 18.2812C85.2119 18.1081 84.7516 18.0215 84.1136 18.0215V29H79.2464ZM84.1409 13.8516H85.303C85.9684 13.8516 86.3011 13.127 86.3011 11.6777C86.3011 10.7389 86.2282 10.1237 86.0823 9.83203C85.9365 9.54036 85.6631 9.39453 85.262 9.39453H84.1409V13.8516ZM98.8923 29.2188C96.9692 29.2188 95.4972 28.64 94.4763 27.4824C93.4646 26.3158 92.9588 24.6341 92.9588 22.4375V11.0078C92.9588 8.94792 93.4601 7.38477 94.4627 6.31836C95.4744 5.25195 96.9509 4.71875 98.8923 4.71875C100.834 4.71875 102.306 5.25195 103.308 6.31836C104.32 7.38477 104.826 8.94792 104.826 11.0078V22.4375C104.826 24.6341 104.316 26.3158 103.295 27.4824C102.283 28.64 100.816 29.2188 98.8923 29.2188ZM98.9334 24.7891C99.6625 24.7891 100.027 24.0827 100.027 22.6699V10.9258C100.027 9.74089 99.6716 9.14844 98.9607 9.14844C98.1586 9.14844 97.7576 9.75456 97.7576 10.9668V22.6973C97.7576 23.4447 97.8487 23.9824 98.031 24.3105C98.2133 24.6296 98.5141 24.7891 98.9334 24.7891ZM112.933 29.2188C111.192 29.2188 109.788 28.6764 108.722 27.5918C107.665 26.5072 107.136 24.9896 107.136 23.0391V11.9375C107.136 9.60417 107.596 7.81771 108.517 6.57812C109.446 5.33854 110.955 4.71875 113.042 4.71875C114.182 4.71875 115.193 4.92839 116.077 5.34766C116.971 5.76693 117.672 6.39583 118.183 7.23438C118.693 8.0638 118.948 9.11198 118.948 10.3789V14.5352H114.163V10.9805C114.163 10.2604 114.072 9.77734 113.89 9.53125C113.708 9.27604 113.425 9.14844 113.042 9.14844C112.596 9.14844 112.295 9.3125 112.14 9.64062C111.985 9.95964 111.907 10.388 111.907 10.9258V22.9707C111.907 23.6361 112.003 24.1055 112.195 24.3789C112.395 24.6523 112.678 24.7891 113.042 24.7891C113.452 24.7891 113.739 24.6204 113.904 24.2832C114.077 23.946 114.163 23.5085 114.163 22.9707V18.6367H119.003V23.1895C119.003 25.304 118.47 26.8398 117.404 27.7969C116.337 28.7448 114.847 29.2188 112.933 29.2188ZM121.176 29V4.9375H125.934V14.5762L128.176 4.9375H133.016L130.323 15.957L133.577 29H128.587L125.962 17.3516V29H121.176ZM134.971 29V4.9375H144.596V9.58594H139.865V14.2754H144.404V18.8008H139.865V24.3105H144.91V29H134.971ZM149.134 29V9.55859H146.277V4.9375H156.804V9.55859H153.947V29H149.134Z" fill="#110B11"></path><defs><clipPath id="clip0_2001_814"><rect width="42" height="30" fill="white" transform="translate(0 2)"></rect></clipPath></defs></svg>