<svg xmlns="http://www.w3.org/2000/svg" width="109" height="28" viewBox="0 0 109 28" fill="none"><g clip-path="url(#clip0_36_391)"><path d="M29.5905 -0.0166016H34.2046V28.0493H29.5905V-0.0166016Z" fill="#17313B"></path><path d="M50.2537 19.1552C50.2537 23.5034 46.6427 23.8987 45.439 23.8987C42.6304 23.8987 42.2292 21.3293 42.2292 19.9458V9.0752H37.6151V19.7481C37.6151 22.3175 38.4175 24.6893 40.0224 26.0728C41.4267 27.4564 43.2322 28.0493 45.439 28.0493C47.0439 28.0493 49.05 27.654 50.2537 26.4681V28.0493H54.8678V9.0752H50.2537V19.1552Z" fill="#17313B"></path><path d="M63.8954 2.15723H59.2813V9.07487H55.8708V13.4231H59.2813V28.049H63.8954V13.4231H67.3058V9.07487H63.8954V2.15723Z" fill="#17313B"></path><path d="M81.75 22.3173C80.7469 23.1079 79.3426 23.7009 77.9383 23.7009C74.7285 23.7009 72.5218 21.3291 72.5218 18.1667C72.5218 15.0044 74.7285 12.8303 77.9383 12.8303C79.3426 12.8303 80.7469 13.2256 81.75 14.2138L82.3518 14.8067L85.5616 11.842L84.7592 11.2491C82.9537 9.66792 80.5463 8.67969 77.9383 8.67969C72.3212 8.67969 68.1083 12.8303 68.1083 18.3644C68.1083 23.8985 72.3212 28.0491 77.9383 28.0491C80.5463 28.0491 82.9537 27.0609 84.7592 25.4797L85.5616 24.8867L82.3518 21.7244L81.75 22.3173Z" fill="#17313B"></path><path d="M101.811 10.6563C100.407 9.27282 99.0028 8.67987 96.796 8.67987C95.1911 8.67987 93.5862 9.07516 92.3825 10.261V-0.0166016H87.7684V28.0493H92.3825V17.574C92.3825 13.2258 95.3917 12.8305 96.5954 12.8305C99.404 12.8305 99.2034 15.3999 99.2034 16.7834V27.8516H103.818V16.9811C103.818 14.4116 103.216 12.0399 101.811 10.6563Z" fill="#17313B"></path><path d="M77.7378 21.5269C79.5105 21.5269 80.9476 20.111 80.9476 18.3645C80.9476 16.618 79.5105 15.2021 77.7378 15.2021C75.965 15.2021 74.528 16.618 74.528 18.3645C74.528 20.111 75.965 21.5269 77.7378 21.5269Z" fill="#EF4335"></path><path d="M23.1709 21.1316C21.566 22.7128 19.1586 23.701 16.5506 23.701C11.5353 23.701 7.92424 19.7481 7.92424 14.4116C7.92424 9.07513 11.5353 5.12219 16.7512 5.12219C19.1586 5.12219 21.566 6.11042 23.3715 7.88924L23.9733 8.48219L26.9825 5.51748L26.3807 4.92454C23.7727 2.35513 20.3623 0.971597 16.7512 0.971597C9.12792 0.77395 3.51074 6.70336 3.51074 14.4116C3.51074 22.1198 9.12792 28.0492 16.5506 28.0492C20.1617 28.0492 23.7727 26.6657 26.1801 24.0963L26.7819 23.5034L23.7727 20.5387L23.1709 21.1316Z" fill="#17313B"></path></g><defs><clipPath id="clip0_36_391"><rect width="109" height="28" fill="white"></rect></clipPath></defs></svg>