<svg xmlns="http://www.w3.org/2000/svg" width="158" height="34" viewBox="0 0 158 34" fill="none"><g clip-path="url(#clip0_2001_798)"><path fill-rule="evenodd" clip-rule="evenodd" d="M39.3334 13.1952C39.1829 13.1093 39.0285 13.0308 38.8701 12.96C38.7122 12.8888 38.5507 12.8258 38.3862 12.7705C38.2217 12.7153 38.0546 12.6678 37.8853 12.6285C37.716 12.5897 37.5454 12.5586 37.373 12.5361C37.2006 12.5133 37.0278 12.499 36.8541 12.4934C36.6804 12.4874 36.5067 12.4899 36.3335 12.5012C36.1598 12.512 35.9874 12.5314 35.8159 12.559C35.644 12.5866 35.4742 12.6225 35.3067 12.6665C35.1387 12.7109 34.9733 12.7627 34.8101 12.8232C34.6474 12.8832 34.4881 12.9509 34.3319 13.0265C34.1762 13.102 34.0239 13.1849 33.8765 13.2755C33.7286 13.3657 33.5855 13.4628 33.4477 13.5669C33.3095 13.6713 33.1769 13.7818 33.0496 13.8988C32.9227 14.0158 32.8015 14.1383 32.6869 14.2674C32.5719 14.396 32.4638 14.5298 32.3623 14.6692C32.2604 14.8082 32.1663 14.952 32.0788 15.1004L27.7016 22.5931C27.6145 22.7416 27.5349 22.894 27.4632 23.0502C27.391 23.2065 27.3271 23.3657 27.2711 23.528C27.2151 23.6907 27.167 23.8552 27.1276 24.0222C27.0878 24.1893 27.0563 24.358 27.0335 24.5281C27.0108 24.6982 26.9964 24.8687 26.9907 25.0404C26.9845 25.2118 26.9872 25.3832 26.9985 25.5545C27.0099 25.7254 27.0296 25.8959 27.0576 26.0651C27.086 26.2343 27.1224 26.4018 27.1674 26.5676C27.212 26.7333 27.265 26.8965 27.3262 27.057C27.3875 27.218 27.4562 27.3751 27.5332 27.5292C27.6097 27.6829 27.6942 27.8327 27.7856 27.9786C27.8775 28.1244 27.9764 28.2652 28.0822 28.4015C28.1877 28.5375 28.3001 28.6683 28.4187 28.7939C28.5377 28.9191 28.6624 29.0382 28.7932 29.1517C28.9235 29.2648 29.0596 29.3714 29.2009 29.4716C29.3422 29.5713 29.4879 29.6645 29.6389 29.7504C29.7894 29.8363 29.9438 29.9148 30.1026 29.9856C30.261 30.0568 30.4224 30.1199 30.5874 30.1751C30.7523 30.2308 30.9194 30.2778 31.0887 30.3171C31.2585 30.356 31.4295 30.387 31.6019 30.4095C31.7747 30.4319 31.948 30.4462 32.1221 30.4518C32.2958 30.4574 32.4699 30.4548 32.6436 30.4436C32.8173 30.4324 32.9901 30.4129 33.1616 30.3849C33.3335 30.3573 33.5033 30.321 33.6717 30.2765C33.8397 30.2321 34.0055 30.1799 34.1683 30.1194C34.3315 30.0586 34.4907 29.9904 34.6469 29.9148C34.8031 29.8389 34.9549 29.7556 35.1028 29.6645C35.2507 29.5739 35.3937 29.4763 35.532 29.3719C35.6698 29.2674 35.8028 29.1565 35.9297 29.0386C36.0565 28.9212 36.1777 28.7982 36.2924 28.6692C36.407 28.5397 36.515 28.4054 36.6165 28.266C36.718 28.1262 36.8121 27.982 36.8992 27.8331L41.2794 20.3521C41.366 20.2036 41.4457 20.0508 41.517 19.8946C41.5887 19.7383 41.6526 19.579 41.7082 19.4163C41.7642 19.254 41.8114 19.0891 41.8508 18.9221C41.8902 18.7546 41.9212 18.5863 41.944 18.4162C41.9667 18.2457 41.9807 18.0752 41.9864 17.9034C41.9917 17.7321 41.9891 17.5607 41.9772 17.3894C41.9659 17.2185 41.9462 17.048 41.9177 16.8788C41.8893 16.7096 41.8526 16.5421 41.8075 16.3763C41.7624 16.2106 41.7091 16.0474 41.6478 15.8869C41.5866 15.7263 41.5174 15.5692 41.4404 15.4151C41.3634 15.2614 41.2794 15.1117 41.1875 14.9658C41.0957 14.8203 40.9968 14.6792 40.8909 14.5432C40.785 14.4072 40.6726 14.2765 40.5536 14.1513C40.4346 14.0257 40.3099 13.9066 40.1791 13.7935C40.0487 13.6804 39.9127 13.5738 39.7714 13.4741C39.6296 13.3739 39.4839 13.2811 39.3334 13.1952Z" fill="#D2FF28"></path><path fill-rule="evenodd" clip-rule="evenodd" d="M22.3151 9.25397C22.4656 9.16808 22.6201 9.08995 22.7784 9.01916C22.9368 8.94838 23.0987 8.88536 23.2632 8.83011C23.4281 8.77486 23.5948 8.72781 23.7641 8.68897C23.9339 8.65012 24.1045 8.61947 24.2769 8.59703C24.4493 8.57458 24.6225 8.56034 24.7966 8.55473C24.9703 8.54912 25.144 8.55214 25.3172 8.56336C25.4909 8.57458 25.6637 8.59401 25.8352 8.62206C26.0067 8.65012 26.1765 8.68594 26.3445 8.7304C26.5125 8.77486 26.6779 8.82752 26.8406 8.88795C27.0034 8.94838 27.1631 9.01614 27.3188 9.09211C27.475 9.16808 27.6268 9.25138 27.7743 9.34202C27.9221 9.43266 28.0648 9.52978 28.203 9.63424C28.3408 9.73869 28.4734 9.84962 28.6003 9.96702C28.7271 10.0844 28.8483 10.2074 28.9629 10.3365C29.0776 10.4651 29.1856 10.5994 29.2867 10.7388C29.3882 10.8786 29.4822 11.0224 29.5693 11.1708L36.2666 22.5931C36.3532 22.742 36.4324 22.8948 36.5037 23.051C36.575 23.2077 36.6389 23.3674 36.6944 23.5301C36.75 23.6929 36.7972 23.8577 36.8366 24.0248C36.8756 24.1922 36.9066 24.361 36.9289 24.5311C36.9512 24.7016 36.9652 24.8725 36.9705 25.0439C36.9757 25.2156 36.9727 25.387 36.9609 25.5584C36.9491 25.7293 36.9289 25.8998 36.9005 26.069C36.8716 26.2386 36.8349 26.4061 36.7894 26.5718C36.7439 26.7376 36.6905 26.9007 36.6288 27.0613C36.5676 27.2219 36.498 27.379 36.4206 27.5326C36.3436 27.6867 36.2587 27.8365 36.1668 27.982C36.0745 28.1274 35.9752 28.2681 35.8693 28.4045C35.763 28.5405 35.6501 28.6708 35.5311 28.796C35.4121 28.9212 35.287 29.0403 35.1557 29.153C35.0249 29.2661 34.8884 29.3722 34.7471 29.4724C34.6054 29.5721 34.4592 29.6645 34.3083 29.7503C34.1578 29.8358 34.0029 29.9144 33.8446 29.9852C33.6862 30.0559 33.5247 30.119 33.3598 30.1742C33.1953 30.229 33.0282 30.2761 32.8589 30.3153C32.6896 30.3542 32.5185 30.3848 32.3461 30.4073C32.1737 30.4297 32.0005 30.4435 31.8268 30.4492C31.6531 30.4548 31.4794 30.4522 31.3057 30.441C31.1321 30.4297 30.9597 30.4103 30.7882 30.3823C30.6167 30.3542 30.4465 30.3179 30.2785 30.2735C30.1105 30.2295 29.9451 30.1768 29.7824 30.1164C29.6196 30.0559 29.4604 29.9877 29.3042 29.9118C29.1484 29.8362 28.9966 29.7529 28.8488 29.6623C28.7013 29.5717 28.5583 29.4741 28.4204 29.3696C28.2822 29.2652 28.1496 29.1547 28.0228 29.0373C27.8959 28.9199 27.7751 28.7969 27.6605 28.6678C27.5459 28.5388 27.4378 28.4045 27.3363 28.2651C27.2348 28.1257 27.1408 27.9815 27.0537 27.833L20.3687 16.4108C20.2816 16.2623 20.2024 16.11 20.1307 15.9537C20.0589 15.7975 19.9951 15.6378 19.9391 15.4755C19.8831 15.3128 19.8354 15.1479 19.796 14.9808C19.7562 14.8138 19.7251 14.645 19.7024 14.475C19.6796 14.3045 19.6656 14.134 19.6599 13.9622C19.6543 13.7908 19.6573 13.6195 19.6687 13.4481C19.6801 13.2768 19.6998 13.1067 19.7282 12.9371C19.7566 12.7679 19.7934 12.6004 19.8384 12.4347C19.8835 12.2689 19.9369 12.1057 19.9981 11.9448C20.0594 11.7842 20.1285 11.6271 20.2055 11.473C20.2825 11.3193 20.3669 11.1695 20.4588 11.0237C20.5511 10.8782 20.65 10.737 20.7559 10.6011C20.8618 10.4651 20.9742 10.3343 21.0932 10.2092C21.2122 10.084 21.3373 9.96486 21.4681 9.85178C21.5989 9.73869 21.735 9.63208 21.8768 9.53237C22.0181 9.43223 22.1642 9.33943 22.3151 9.25397Z" fill="#D2FF28"></path><mask id="mask0_2001_798" style="mask-type:luminance" maskUnits="userSpaceOnUse" x="0" y="2" width="22" height="30"><path d="M0 2.0225H21.84V31.4424H0V2.0225Z" fill="white"></path></mask><g mask="url(#mask0_2001_798)"><path fill-rule="evenodd" clip-rule="evenodd" d="M2.66628 2.72384C2.81721 2.63838 2.97165 2.56025 3.13003 2.48947C3.28884 2.41868 3.45028 2.35609 3.61478 2.30085C3.77971 2.24603 3.94684 2.19898 4.11615 2.16013C4.28546 2.12129 4.45653 2.09064 4.6289 2.06863C4.80128 2.04618 4.97453 2.03237 5.14821 2.02676C5.3219 2.02115 5.49559 2.02417 5.66928 2.03539C5.84296 2.04662 6.01534 2.06647 6.18684 2.09453C6.35878 2.12258 6.52853 2.15841 6.69653 2.20287C6.86409 2.24732 7.02946 2.29998 7.19221 2.36041C7.35496 2.42084 7.51465 2.48904 7.6704 2.565C7.82659 2.64097 7.9784 2.72427 8.12584 2.81492C8.27371 2.90556 8.41634 3.00311 8.55459 3.10756C8.6924 3.21202 8.82496 3.32294 8.95184 3.43992C9.07871 3.55732 9.19946 3.68033 9.31409 3.80939C9.42915 3.93845 9.53678 4.07269 9.63828 4.2121C9.73978 4.35152 9.83384 4.49568 9.9209 4.64416L21.0282 23.6216C21.1157 23.7701 21.1948 23.9225 21.267 24.0783C21.3388 24.2345 21.4031 24.3938 21.4591 24.5561C21.5151 24.7184 21.5632 24.8833 21.603 25.0503C21.6424 25.2174 21.6739 25.3857 21.6967 25.5558C21.7198 25.7258 21.7343 25.8968 21.74 26.0681C21.7461 26.2395 21.7435 26.4108 21.7321 26.5822C21.7212 26.7531 21.7015 26.9236 21.6735 27.0928C21.645 27.262 21.6087 27.4295 21.5641 27.5952C21.519 27.761 21.4661 27.9241 21.4053 28.0847C21.344 28.2457 21.2753 28.4028 21.1983 28.5569C21.1218 28.7105 21.0378 28.8608 20.9459 29.0062C20.8545 29.1521 20.7556 29.2932 20.6502 29.4292C20.5443 29.5656 20.4323 29.6964 20.3133 29.8216C20.1947 29.9472 20.07 30.0663 19.9397 30.1794C19.8088 30.2929 19.6732 30.3995 19.5319 30.4997C19.3906 30.5998 19.2449 30.6926 19.0944 30.7785C18.9435 30.8644 18.789 30.9425 18.6307 31.0133C18.4723 31.0841 18.3108 31.1471 18.1459 31.2023C17.9814 31.2576 17.8143 31.3046 17.645 31.3435C17.4757 31.3823 17.3046 31.4134 17.1322 31.4354C16.9598 31.4579 16.7866 31.4721 16.6129 31.4777C16.4392 31.4833 16.2655 31.4803 16.0918 31.4691C15.9182 31.4579 15.7458 31.4385 15.5743 31.4104C15.4023 31.3828 15.2326 31.3465 15.0646 31.3021C14.8966 31.2576 14.7312 31.2054 14.5685 31.1449C14.4057 31.0845 14.2465 31.0163 14.0903 30.9404C13.9345 30.8644 13.7827 30.7811 13.6348 30.6909C13.487 30.6002 13.3443 30.5027 13.2061 30.3982C13.0683 30.2938 12.9357 30.1828 12.8088 30.0654C12.682 29.9485 12.5612 29.825 12.4466 29.6964C12.3315 29.5673 12.2235 29.4331 12.1224 29.2937C12.0209 29.1543 11.9268 29.0101 11.8398 28.8616L0.717214 9.88415C0.630152 9.73524 0.550964 9.58287 0.479214 9.42662C0.407464 9.27037 0.343589 9.11067 0.287589 8.94838C0.231589 8.78565 0.183902 8.62077 0.144527 8.45373C0.105152 8.28669 0.0736516 8.11792 0.0513392 7.94786C0.0285891 7.77736 0.0141516 7.60687 0.00846413 7.43508C0.00277663 7.26373 0.00583913 7.09194 0.0172141 6.92101C0.0281516 6.74965 0.0482767 6.57916 0.0767141 6.40996C0.104714 6.24076 0.141464 6.07286 0.186527 5.90711C0.231589 5.74137 0.284527 5.57821 0.345777 5.41764C0.407027 5.25665 0.476152 5.09953 0.553152 4.94544C0.630152 4.79178 0.714152 4.64157 0.806027 4.49611C0.897902 4.35022 0.996777 4.20908 1.10265 4.07312C1.20853 3.93672 1.32096 3.80594 1.43996 3.68077C1.55853 3.55516 1.68365 3.43603 1.81403 3.32294C1.94484 3.20943 2.0809 3.10281 2.22221 3.00311C2.36396 2.90297 2.50965 2.80974 2.66059 2.72384H2.66628Z" fill="#D2FF28"></path></g><mask id="mask1_2001_798" style="mask-type:luminance" maskUnits="userSpaceOnUse" x="11" y="8" width="19" height="24"><path d="M11.648 8.51928H29.68V31.4423H11.648V8.51928Z" fill="white"></path></mask><g mask="url(#mask1_2001_798)"><path fill-rule="evenodd" clip-rule="evenodd" d="M27.0148 9.25397C26.8643 9.16808 26.7094 9.08995 26.551 9.01916C26.3926 8.94838 26.2312 8.88536 26.0667 8.83011C25.9018 8.77486 25.7346 8.72781 25.5653 8.68897C25.396 8.65012 25.225 8.61947 25.0526 8.59703C24.8802 8.57458 24.707 8.56034 24.5333 8.55473C24.3596 8.54912 24.1859 8.55214 24.0122 8.56336C23.8385 8.57458 23.6661 8.59401 23.4946 8.62206C23.3231 8.65012 23.153 8.68595 22.985 8.7304C22.817 8.77486 22.6516 8.82752 22.4888 8.88795C22.3261 8.94838 22.1668 9.01614 22.0106 9.09211C21.8549 9.16808 21.7031 9.25138 21.5552 9.34202C21.4078 9.43266 21.2647 9.52978 21.1269 9.63424C20.9886 9.73869 20.8561 9.84962 20.7292 9.96702C20.6023 10.0844 20.4816 10.2074 20.367 10.3365C20.2523 10.4651 20.1443 10.5994 20.0428 10.7388C19.9413 10.8786 19.8472 11.0224 19.7601 11.1708L12.4666 23.6216C12.38 23.7701 12.3003 23.9225 12.2286 24.0787C12.1568 24.235 12.093 24.3947 12.0374 24.557C11.9814 24.7197 11.9337 24.8842 11.8939 25.0516C11.8545 25.2187 11.8235 25.387 11.8007 25.5571C11.778 25.7276 11.764 25.8981 11.7583 26.0698C11.7526 26.2412 11.7552 26.4126 11.7666 26.5839C11.778 26.7548 11.7981 26.9253 11.8261 27.0945C11.8545 27.2637 11.8913 27.4312 11.9363 27.5969C11.9814 27.7627 12.0343 27.9259 12.0956 28.0864C12.1568 28.247 12.226 28.4045 12.303 28.5582C12.3795 28.7123 12.464 28.8621 12.5558 29.0075C12.6477 29.1534 12.7466 29.2945 12.8525 29.4305C12.9583 29.5665 13.0708 29.6973 13.1893 29.8224C13.3083 29.948 13.433 30.0672 13.5638 30.1803C13.6946 30.2933 13.8307 30.4 13.972 30.5001C14.1133 30.5998 14.2595 30.6926 14.41 30.7785C14.5605 30.8648 14.7153 30.9434 14.8737 31.0146C15.0325 31.0858 15.194 31.1493 15.3589 31.2049C15.5238 31.2602 15.691 31.3077 15.8607 31.3469C16.03 31.3862 16.2015 31.4173 16.3739 31.4398C16.5467 31.4626 16.72 31.4769 16.8941 31.4825C17.0682 31.4881 17.2423 31.4855 17.416 31.4743C17.5901 31.4635 17.763 31.4441 17.9349 31.416C18.1064 31.388 18.2766 31.3521 18.445 31.3077C18.6135 31.2632 18.7788 31.2106 18.942 31.1501C19.1052 31.0897 19.2645 31.0215 19.4211 30.9455C19.5773 30.8691 19.7291 30.7858 19.877 30.6952C20.0248 30.6045 20.1679 30.5066 20.3061 30.4021C20.4444 30.2972 20.577 30.1863 20.7043 30.0685C20.8311 29.9511 20.9519 29.8276 21.067 29.6981C21.1816 29.5691 21.2896 29.4344 21.3911 29.2945C21.4922 29.1547 21.5863 29.0105 21.6733 28.8616L28.9608 16.4108C29.0478 16.2623 29.127 16.11 29.1988 15.9537C29.2705 15.797 29.3344 15.6378 29.3904 15.4751C29.446 15.3128 29.4936 15.1479 29.533 14.9808C29.5724 14.8138 29.6035 14.645 29.6262 14.475C29.649 14.3049 29.663 14.134 29.6686 13.9622C29.6743 13.7908 29.6713 13.6195 29.6599 13.4481C29.6485 13.2772 29.6288 13.1067 29.6004 12.9375C29.572 12.7683 29.5352 12.6004 29.4901 12.4347C29.4451 12.2689 29.3917 12.1057 29.3305 11.9452C29.2692 11.7846 29.2001 11.6275 29.1231 11.4738C29.0461 11.3198 28.9616 11.17 28.8698 11.0241C28.7779 10.8786 28.679 10.7375 28.5731 10.6015C28.4673 10.4656 28.3548 10.3348 28.2358 10.2096C28.1168 10.0844 27.9921 9.9653 27.8613 9.85221C27.7305 9.73912 27.594 9.63251 27.4527 9.53237C27.3114 9.43266 27.1653 9.33986 27.0148 9.25397Z" fill="#D2FF28"></path></g></g><path d="M46.0664 29V4.9375H55.6914V9.58594H50.9609V14.2754H55.5V18.8008H50.9609V24.3105H56.0059V29H46.0664ZM58.1655 29V4.9375H64.687C66.437 4.9375 67.7084 5.36589 68.5014 6.22266C69.3035 7.07031 69.7045 8.47396 69.7045 10.4336V11.4863C69.7045 12.6165 69.4995 13.5326 69.0893 14.2344C68.6883 14.9362 68.073 15.3965 67.2436 15.6152C68.3282 15.8887 69.0528 16.5312 69.4174 17.543C69.7911 18.5456 69.978 19.7715 69.978 21.2207C69.978 22.7793 69.8321 24.1419 69.5405 25.3086C69.2488 26.4753 68.7202 27.3822 67.9545 28.0293C67.1889 28.6764 66.0997 29 64.687 29H58.1655ZM62.8686 14.002H63.853C64.2996 14.002 64.5867 13.8288 64.7143 13.4824C64.8419 13.1361 64.9057 12.7214 64.9057 12.2383V9.81836C64.9057 9.04362 64.5639 8.65625 63.8803 8.65625H62.8686V14.002ZM63.3471 24.7617C64.5958 24.7617 65.2202 24.1693 65.2202 22.9844V19.9766C65.2202 19.293 65.1153 18.7552 64.9057 18.3633C64.7052 17.9622 64.3224 17.7617 63.7573 17.7617H62.8686V24.7344C63.0691 24.7526 63.2286 24.7617 63.3471 24.7617Z" fill="#D2FF28"></path><path d="M79.2464 29V4.9375H86.6292C87.8597 4.9375 88.7894 5.22005 89.4183 5.78516C90.0472 6.34115 90.4665 7.125 90.6761 8.13672C90.8948 9.13932 91.0042 10.3197 91.0042 11.6777C91.0042 12.9902 90.8356 14.0384 90.4984 14.8223C90.1702 15.6061 89.5459 16.1484 88.6253 16.4492C89.3818 16.6042 89.9105 16.9824 90.2113 17.584C90.5211 18.1764 90.6761 18.9466 90.6761 19.8945V29H85.932V19.5801C85.932 18.8783 85.7861 18.4453 85.4945 18.2812C85.2119 18.1081 84.7516 18.0215 84.1136 18.0215V29H79.2464ZM84.1409 13.8516H85.303C85.9684 13.8516 86.3011 13.127 86.3011 11.6777C86.3011 10.7389 86.2282 10.1237 86.0823 9.83203C85.9365 9.54036 85.6631 9.39453 85.262 9.39453H84.1409V13.8516ZM98.8923 29.2188C96.9692 29.2188 95.4972 28.64 94.4763 27.4824C93.4646 26.3158 92.9588 24.6341 92.9588 22.4375V11.0078C92.9588 8.94792 93.4601 7.38477 94.4627 6.31836C95.4744 5.25195 96.9509 4.71875 98.8923 4.71875C100.834 4.71875 102.306 5.25195 103.308 6.31836C104.32 7.38477 104.826 8.94792 104.826 11.0078V22.4375C104.826 24.6341 104.316 26.3158 103.295 27.4824C102.283 28.64 100.816 29.2188 98.8923 29.2188ZM98.9334 24.7891C99.6625 24.7891 100.027 24.0827 100.027 22.6699V10.9258C100.027 9.74089 99.6716 9.14844 98.9607 9.14844C98.1586 9.14844 97.7576 9.75456 97.7576 10.9668V22.6973C97.7576 23.4447 97.8487 23.9824 98.031 24.3105C98.2133 24.6296 98.5141 24.7891 98.9334 24.7891ZM112.933 29.2188C111.192 29.2188 109.788 28.6764 108.722 27.5918C107.665 26.5072 107.136 24.9896 107.136 23.0391V11.9375C107.136 9.60417 107.596 7.81771 108.517 6.57812C109.446 5.33854 110.955 4.71875 113.042 4.71875C114.182 4.71875 115.193 4.92839 116.077 5.34766C116.971 5.76693 117.672 6.39583 118.183 7.23438C118.693 8.0638 118.948 9.11198 118.948 10.3789V14.5352H114.163V10.9805C114.163 10.2604 114.072 9.77734 113.89 9.53125C113.708 9.27604 113.425 9.14844 113.042 9.14844C112.596 9.14844 112.295 9.3125 112.14 9.64062C111.985 9.95964 111.907 10.388 111.907 10.9258V22.9707C111.907 23.6361 112.003 24.1055 112.195 24.3789C112.395 24.6523 112.678 24.7891 113.042 24.7891C113.452 24.7891 113.739 24.6204 113.904 24.2832C114.077 23.946 114.163 23.5085 114.163 22.9707V18.6367H119.003V23.1895C119.003 25.304 118.47 26.8398 117.404 27.7969C116.337 28.7448 114.847 29.2188 112.933 29.2188ZM121.176 29V4.9375H125.934V14.5762L128.176 4.9375H133.016L130.323 15.957L133.577 29H128.587L125.962 17.3516V29H121.176ZM134.971 29V4.9375H144.596V9.58594H139.865V14.2754H144.404V18.8008H139.865V24.3105H144.91V29H134.971ZM149.134 29V9.55859H146.277V4.9375H156.804V9.55859H153.947V29H149.134Z" fill="white"></path><defs><clipPath id="clip0_2001_798"><rect width="42" height="30" fill="white" transform="translate(0 2)"></rect></clipPath></defs></svg>