<svg xmlns="http://www.w3.org/2000/svg" width="20" height="32" viewBox="0 0 20 32" fill="none"><g clip-path="url(#clip0_107_6083)"><path d="M15.4286 21.2944C14.3795 22.1342 12.9108 22.7641 11.4421 22.7641C8.08506 22.7641 5.77708 20.2446 5.77708 16.8854C5.77708 13.5262 8.08506 11.2167 11.4421 11.2167C12.9108 11.2167 14.3795 11.6366 15.4286 12.6864L16.0581 13.3162L19.4151 10.1669L18.5759 9.53707C16.6875 7.85745 14.1697 6.80769 11.4421 6.80769C5.56727 6.80769 1.16113 11.2167 1.16113 17.0954C1.16113 22.974 5.56727 27.383 11.4421 27.383C14.1697 27.383 16.6875 26.3333 18.5759 24.6536L19.4151 24.0238L16.0581 20.6645L15.4286 21.2944Z" fill="white"></path><path d="M11.2323 20.4539C13.0864 20.4539 14.5894 18.9499 14.5894 17.0947C14.5894 15.2394 13.0864 13.7354 11.2323 13.7354C9.37825 13.7354 7.87524 15.2394 7.87524 17.0947C7.87524 18.9499 9.37825 20.4539 11.2323 20.4539Z" fill="#EF4335"></path></g><defs><clipPath id="clip0_107_6083"><rect width="19" height="32" fill="white" transform="translate(0.5)"></rect></clipPath></defs></svg>